<svg width="497" height="611" xmlns="http://www.w3.org/2000/svg"><g><path d="M-51.92367673909317,-16.770482618651798L-128.59697168417014,511.92844595571694L-47.9899208219224,37.45299968145417Z" fill="#d57779" stroke="#d57779"/><path d="M-51.92367673909317,-16.770482618651798L-47.9899208219224,37.45299968145417L133.85527323419427,-27.79902344326493Z" fill="#ed4856" stroke="#ed4856"/><path d="M-51.92367673909317,-16.770482618651798L133.85527323419427,-27.79902344326493L202.64273830601124,-68.27067505201008Z" fill="#fc6460" stroke="#fc6460"/><path d="M133.85527323419427,-27.79902344326493L-47.9899208219224,37.45299968145417L81.05458330206991,98.74099159329077Z" fill="#fa6b4d" stroke="#fa6b4d"/><path d="M133.85527323419427,-27.79902344326493L81.05458330206991,98.74099159329077L168.30931595788033,83.6340034367698Z" fill="#fe9a61" stroke="#fe9a61"/><path d="M133.85527323419427,-27.79902344326493L168.30931595788033,83.6340034367698L202.64273830601124,-68.27067505201008Z" fill="#fe9476" stroke="#fe9476"/><path d="M202.64273830601124,-68.27067505201008L168.30931595788033,83.6340034367698L351.4022079933336,-27.047154586764435Z" fill="#faa188" stroke="#faa188"/><path d="M202.64273830601124,-68.27067505201008L351.4022079933336,-27.047154586764435L482.1486340766831,-78.13213338777169Z" fill="#cb7887" stroke="#cb7887"/><path d="M202.64273830601124,-68.27067505201008L482.1486340766831,-78.13213338777169L711.6804083082473,-97.6552560963332Z" fill="#8d3b9b" stroke="#8d3b9b"/><path d="M351.4022079933336,-27.047154586764435L168.30931595788033,83.6340034367698L382.42250994916003,113.40828964360168Z" fill="#e6b278" stroke="#e6b278"/><path d="M351.4022079933336,-27.047154586764435L382.42250994916003,113.40828964360168L479.8933840358419,92.29042656503009Z" fill="#aa9580" stroke="#aa9580"/><path d="M351.4022079933336,-27.047154586764435L479.8933840358419,92.29042656503009L482.1486340766831,-78.13213338777169Z" fill="#9a698d" stroke="#9a698d"/><path d="M482.1486340766831,-78.13213338777169L479.8933840358419,92.29042656503009L629.0002204243724,60.520043278142545Z" fill="#7f459e" stroke="#7f459e"/><path d="M482.1486340766831,-78.13213338777169L629.0002204243724,60.520043278142545L711.6804083082473,-97.6552560963332Z" fill="#7f15b3" stroke="#7f15b3"/><path d="M711.6804083082473,-97.6552560963332L629.0002204243724,60.520043278142545L734.5852412811005,215.8462080885054Z" fill="#803ea9" stroke="#803ea9"/><path d="M-47.9899208219224,37.45299968145417L-128.59697168417014,511.92844595571694L-17.641265812309285,193.47284802652985Z" fill="#d88396" stroke="#d88396"/><path d="M-47.9899208219224,37.45299968145417L-17.641265812309285,193.47284802652985L81.05458330206991,98.74099159329077Z" fill="#ec7a5a" stroke="#ec7a5a"/><path d="M81.05458330206991,98.74099159329077L-17.641265812309285,193.47284802652985L56.428062245943316,262.3184097581899Z" fill="#f5a96f" stroke="#f5a96f"/><path d="M81.05458330206991,98.74099159329077L56.428062245943316,262.3184097581899L168.30931595788033,83.6340034367698Z" fill="#febe6c" stroke="#febe6c"/><path d="M168.30931595788033,83.6340034367698L56.428062245943316,262.3184097581899L257.4068630110237,220.70680486956448Z" fill="#ffe991" stroke="#ffe991"/><path d="M168.30931595788033,83.6340034367698L257.4068630110237,220.70680486956448L360.25697649596736,172.5383238861626Z" fill="#f6ec93" stroke="#f6ec93"/><path d="M168.30931595788033,83.6340034367698L360.25697649596736,172.5383238861626L382.42250994916003,113.40828964360168Z" fill="#e4d586" stroke="#e4d586"/><path d="M382.42250994916003,113.40828964360168L360.25697649596736,172.5383238861626L479.8933840358419,92.29042656503009Z" fill="#a9b88e" stroke="#a9b88e"/><path d="M479.8933840358419,92.29042656503009L360.25697649596736,172.5383238861626L540.3920656073493,218.24463060127874Z" fill="#90aba6" stroke="#90aba6"/><path d="M479.8933840358419,92.29042656503009L540.3920656073493,218.24463060127874L629.0002204243724,60.520043278142545Z" fill="#806cad" stroke="#806cad"/><path d="M629.0002204243724,60.520043278142545L540.3920656073493,218.24463060127874L734.5852412811005,215.8462080885054Z" fill="#8072c4" stroke="#8072c4"/><path d="M-17.641265812309285,193.47284802652985L-128.59697168417014,511.92844595571694L-23.031728553595713,387.37333774248486Z" fill="#d1878b" stroke="#d1878b"/><path d="M-17.641265812309285,193.47284802652985L-23.031728553595713,387.37333774248486L56.428062245943316,262.3184097581899Z" fill="#eca196" stroke="#eca196"/><path d="M56.428062245943316,262.3184097581899L-23.031728553595713,387.37333774248486L125.0769086558302,344.4444639524827Z" fill="#f9b580" stroke="#f9b580"/><path d="M56.428062245943316,262.3184097581899L125.0769086558302,344.4444639524827L257.4068630110237,220.70680486956448Z" fill="#ffe7af" stroke="#ffe7af"/><path d="M257.4068630110237,220.70680486956448L125.0769086558302,344.4444639524827L236.57787479779424,416.66015052268295Z" fill="#fffbb7" stroke="#fffbb7"/><path d="M257.4068630110237,220.70680486956448L236.57787479779424,416.66015052268295L355.80403571676794,415.1413383641787Z" fill="#eaf9a9" stroke="#eaf9a9"/><path d="M257.4068630110237,220.70680486956448L355.80403571676794,415.1413383641787L360.25697649596736,172.5383238861626Z" fill="#d9f0c3" stroke="#d9f0c3"/><path d="M360.25697649596736,172.5383238861626L355.80403571676794,415.1413383641787L540.3920656073493,218.24463060127874Z" fill="#a4d0ca" stroke="#a4d0ca"/><path d="M540.3920656073493,218.24463060127874L355.80403571676794,415.1413383641787L566.1114366123077,317.54071598805064Z" fill="#83accb" stroke="#83accb"/><path d="M540.3920656073493,218.24463060127874L566.1114366123077,317.54071598805064L734.5852412811005,215.8462080885054Z" fill="#8080e8" stroke="#8080e8"/><path d="M734.5852412811005,215.8462080885054L566.1114366123077,317.54071598805064L664.3158123114863,421.0841169310729Z" fill="#8080e2" stroke="#8080e2"/><path d="M734.5852412811005,215.8462080885054L664.3158123114863,421.0841169310729L714.0156939468171,476.7252605994751Z" fill="#7480de" stroke="#7480de"/><path d="M734.5852412811005,215.8462080885054L714.0156939468171,476.7252605994751L710.9160552926222,881.9579726054103Z" fill="#265bec" stroke="#265bec"/><path d="M-23.031728553595713,387.37333774248486L-128.59697168417014,511.92844595571694L83.04861136526716,532.0021295199671Z" fill="#a0888d" stroke="#a0888d"/><path d="M-23.031728553595713,387.37333774248486L83.04861136526716,532.0021295199671L125.0769086558302,344.4444639524827Z" fill="#d8b886" stroke="#d8b886"/><path d="M125.0769086558302,344.4444639524827L83.04861136526716,532.0021295199671L187.3119669988876,502.5469075912722Z" fill="#c5d79b" stroke="#c5d79b"/><path d="M125.0769086558302,344.4444639524827L187.3119669988876,502.5469075912722L236.57787479779424,416.66015052268295Z" fill="#ddf2b0" stroke="#ddf2b0"/><path d="M236.57787479779424,416.66015052268295L187.3119669988876,502.5469075912722L377.6518618239899,555.2043945074781Z" fill="#aae7b5" stroke="#aae7b5"/><path d="M236.57787479779424,416.66015052268295L377.6518618239899,555.2043945074781L355.80403571676794,415.1413383641787Z" fill="#9fe6b4" stroke="#9fe6b4"/><path d="M355.80403571676794,415.1413383641787L377.6518618239899,555.2043945074781L478.97762898660216,569.4606100231908Z" fill="#56b8c1" stroke="#56b8c1"/><path d="M355.80403571676794,415.1413383641787L478.97762898660216,569.4606100231908L566.1114366123077,317.54071598805064Z" fill="#63b2c6" stroke="#63b2c6"/><path d="M566.1114366123077,317.54071598805064L478.97762898660216,569.4606100231908L664.3158123114863,421.0841169310729Z" fill="#557cdd" stroke="#557cdd"/><path d="M664.3158123114863,421.0841169310729L478.97762898660216,569.4606100231908L714.0156939468171,476.7252605994751Z" fill="#366de5" stroke="#366de5"/><path d="M-128.59697168417014,511.92844595571694L-132.58011458185095,617.8029462190588L75.74713697953956,617.9097469540404Z" fill="#6542a7" stroke="#6542a7"/><path d="M-128.59697168417014,511.92844595571694L75.74713697953956,617.9097469540404L83.04861136526716,532.0021295199671Z" fill="#866f99" stroke="#866f99"/><path d="M83.04861136526716,532.0021295199671L75.74713697953956,617.9097469540404L187.3119669988876,502.5469075912722Z" fill="#99a6a5" stroke="#99a6a5"/><path d="M187.3119669988876,502.5469075912722L75.74713697953956,617.9097469540404L231.99379754052018,701.9735202241857Z" fill="#7fa0c4" stroke="#7fa0c4"/><path d="M187.3119669988876,502.5469075912722L231.99379754052018,701.9735202241857L377.6518618239899,555.2043945074781Z" fill="#7fb7c9" stroke="#7fb7c9"/><path d="M377.6518618239899,555.2043945074781L231.99379754052018,701.9735202241857L352.5526677941932,677.3788057727547Z" fill="#5b8fd1" stroke="#5b8fd1"/><path d="M377.6518618239899,555.2043945074781L352.5526677941932,677.3788057727547L478.97762898660216,569.4606100231908Z" fill="#2e8cd3" stroke="#2e8cd3"/><path d="M478.97762898660216,569.4606100231908L352.5526677941932,677.3788057727547L490.29295978317157,680.6005160912722Z" fill="#1a63de" stroke="#1a63de"/><path d="M478.97762898660216,569.4606100231908L490.29295978317157,680.6005160912722L667.4457672056838,651.7130931846019Z" fill="#0031f5" stroke="#0031f5"/><path d="M478.97762898660216,569.4606100231908L667.4457672056838,651.7130931846019L714.0156939468171,476.7252605994751Z" fill="#1346f5" stroke="#1346f5"/><path d="M714.0156939468171,476.7252605994751L667.4457672056838,651.7130931846019L710.9160552926222,881.9579726054103Z" fill="#0011ff" stroke="#0011ff"/><path d="M-132.58011458185095,617.8029462190588L-67.0680155094975,834.3371982663202L75.74713697953956,617.9097469540404Z" fill="#5f14ac" stroke="#5f14ac"/><path d="M75.74713697953956,617.9097469540404L-67.0680155094975,834.3371982663202L66.90919063509982,860.3423542124933Z" fill="#722aa5" stroke="#722aa5"/><path d="M75.74713697953956,617.9097469540404L66.90919063509982,860.3423542124933L231.99379754052018,701.9735202241857Z" fill="#7f5eb6" stroke="#7f5eb6"/><path d="M231.99379754052018,701.9735202241857L66.90919063509982,860.3423542124933L256.22444865858085,855.0850595358261Z" fill="#7f76ce" stroke="#7f76ce"/><path d="M231.99379754052018,701.9735202241857L256.22444865858085,855.0850595358261L343.1024438184989,831.0258750785422Z" fill="#737bcc" stroke="#737bcc"/><path d="M231.99379754052018,701.9735202241857L343.1024438184989,831.0258750785422L352.5526677941932,677.3788057727547Z" fill="#6274cf" stroke="#6274cf"/><path d="M352.5526677941932,677.3788057727547L343.1024438184989,831.0258750785422L490.29295978317157,680.6005160912722Z" fill="#2f5dd4" stroke="#2f5dd4"/><path d="M490.29295978317157,680.6005160912722L343.1024438184989,831.0258750785422L530.1086010926855,800.5096019513583Z" fill="#133ee1" stroke="#133ee1"/><path d="M490.29295978317157,680.6005160912722L530.1086010926855,800.5096019513583L667.4457672056838,651.7130931846019Z" fill="#0005f9" stroke="#0005f9"/><path d="M667.4457672056838,651.7130931846019L530.1086010926855,800.5096019513583L710.9160552926222,881.9579726054103Z" fill="#0000ff" stroke="#0000ff"/><path d="M66.90919063509982,860.3423542124933L710.9160552926222,881.9579726054103L256.22444865858085,855.0850595358261Z" fill="#4d6bd2" stroke="#4d6bd2"/><path d="M256.22444865858085,855.0850595358261L710.9160552926222,881.9579726054103L343.1024438184989,831.0258750785422Z" fill="#1c47dd" stroke="#1c47dd"/><path d="M343.1024438184989,831.0258750785422L710.9160552926222,881.9579726054103L530.1086010926855,800.5096019513583Z" fill="#0017f1" stroke="#0017f1"/></g><filter id="noise"><feTurbulence type="fractalNoise" in="fillPaint" fill="#F00" baseFrequency="0.7" numOctaves="10" stitchTiles="stitch"/><feComponentTransfer><feFuncR type="linear" slope="2" intercept="-.5"/><feFuncG type="linear" slope="2" intercept="-.5"/><feFuncB type="linear" slope="2" intercept="-.5"/></feComponentTransfer><feColorMatrix type="matrix" values="0.3333 0.3333 0.3333 0 0   0.3333 0.3333 0.3333 0 0   0.3333 0.3333 0.3333 0 0   0 0 0 1 0"/></filter><rect opacity="0.3" width="100%" height="100%" filter="url(#noise)"/></svg>